<?xml version="1.0" encoding="utf-8"?>
<?xml-stylesheet type="text/xsl" href="rss1.xsl"?>
<rss version="2.0" xmlns:atom="http://www.w3.org/2005/Atom" xmlns:content="http://purl.org/rss/1.0/modules/content/" xmlns:dc="http://purl.org/dc/elements/1.1/" xmlns:media="http://search.yahoo.com/mrss/">
<channel>
 <title>Getty</title>
 <link>http://www.gettyimg.com/</link>
 <atom:link href="http://www.gettyimg.com/" rel="self" type="application/rss+xml" />

 
                <item>
                <title><![CDATA[【HD Live Performances】HDTV - BRIT Awards 2024 (+ Red Carpet) HDTV H264 1080i DD2.0-ilya2129]]></title>
                <link><![CDATA[https://sharemania.us/threads/brit-awards-2024-red-carpet-hdtv-h264-1080i-dd2-0-ilya2129.239104/]]></link>
                <description><![CDATA[<article>
<blockquote class="messageText SelectQuoteContainer ugc baseHtml">
<div style="text-align: center"><img src="https://i123.fastpic.org/big/2024/0303/a4/1da109cafb3b996822d56248e8f952a4.png?r=1" class="bbCodeImage LbImage" alt="[​IMG]" data-url="https://i123.fastpic.org/big/2024/0303/a4/1da109cafb3b996822d56248e8f952a4.png?r=1" style=""><br>
<br>
<a href="https://postimg.cc/XZrcXw5C" target="_blank" class="externalLink" rel="nofollow"><img src="https://i.postimg.cc/XZrcXw5C/vlcsnap-2024-03-03-13h37m10s409.png" class="bbCodeImage LbImage" alt="[​IMG]" data-url="https://i.postimg.cc/XZrcXw5C/vlcsnap-2024-03-03-13h37m10s409.png"></a> <a href="https://postimg.cc/N2kRZD3W" target="_blank" class="externalLink" rel="nofollow"><img src="https://i.postimg.cc/N2kRZD3W/vlcsnap-2024-03-03-13h37m13s013.png" class="bbCodeImage LbImage" alt="[​IMG]" data-url="https://i.postimg.cc/N2kRZD3W/vlcsnap-2024-03-03-13h37m13s013.png"></a> <a href="https://postimg.cc/K1ztsnJH" target="_blank" class="externalLink" rel="nofollow"><img src="https://i.postimg.cc/K1ztsnJH/vlcsnap-2024-03-03-13h37m14s777.png" class="bbCodeImage LbImage" alt="[​IMG]" data-url="https://i.postimg.cc/K1ztsnJH/vlcsnap-2024-03-03-13h37m14s777.png"></a> <a href="https://postimg.cc/dD2R7Qh4" target="_blank" class="externalLink" rel="nofollow"><img src="https://i.postimg.cc/dD2R7Qh4/vlcsnap-2024-03-03-13h37m17s323.png" class="bbCodeImage LbImage" alt="[​IMG]" data-url="https://i.postimg.cc/dD2R7Qh4/vlcsnap-2024-03-03-13h37m17s323.png"></a> <a href="https://postimg.cc/KK3BmmX7" target="_blank" class="externalLink" rel="nofollow"><img src="https://i.postimg.cc/KK3BmmX7/vlcsnap-2024-03-03-13h37m19s418.png" class="bbCodeImage LbImage" alt="[​IMG]" data-url="https://i.postimg.cc/KK3BmmX7/vlcsnap-2024-03-03-13h37m19s418.png"></a><br>
<br>
<a href="https://postimg.cc/7fq3Sv7D" target="_blank" class="externalLink" rel="nofollow"><img src="https://i.postimg.cc/7fq3Sv7D/vlcsnap-2024-03-03-13h37m24s591.png" class="bbCodeImage LbImage" alt="[​IMG]" data-url="https://i.postimg.cc/7fq3Sv7D/vlcsnap-2024-03-03-13h37m24s591.png"></a> <a href="https://postimg.cc/LJbjdnW6" target="_blank" class="externalLink" rel="nofollow"><img src="https://i.postimg.cc/LJbjdnW6/vlcsnap-2024-03-03-13h37m27s625.png" class="bbCodeImage LbImage" alt="[​IMG]" data-url="https://i.postimg.cc/LJbjdnW6/vlcsnap-2024-03-03-13h37m27s625.png"></a> <a href="https://postimg.cc/qzQ8LmXK" target="_blank" class="externalLink" rel="nofollow"><img src="https://i.postimg.cc/qzQ8LmXK/vlcsnap-2024-03-03-13h37m29s911.png" class="bbCodeImage LbImage" alt="[​IMG]" data-url="https://i.postimg.cc/qzQ8LmXK/vlcsnap-2024-03-03-13h37m29s911.png"></a> <a href="https://postimg.cc/r06Wm7cB" target="_blank" class="externalLink" rel="nofollow"><img src="https://i.postimg.cc/r06Wm7cB/vlcsnap-2024-03-03-13h37m32s318.png" class="bbCodeImage LbImage" alt="[​IMG]" data-url="https://i.postimg.cc/r06Wm7cB/vlcsnap-2024-03-03-13h37m32s318.png"></a> <a href="https://postimg.cc/ftxd05RJ" target="_blank" class="externalLink" rel="nofollow"><img src="https://i.postimg.cc/ftxd05RJ/vlcsnap-2024-03-03-13h37m36s066.png" class="bbCodeImage LbImage" alt="[​IMG]" data-url="https://i.postimg.cc/ftxd05RJ/vlcsnap-2024-03-03-13h37m36s066.png"></a><br>
<br>
​</div><br>
<div class="bbCodeBlock bbCodeCode">
<div class="type">Code:</div>
<pre>General
ID                                       : 1 (0x1)
Complete name                            : D:\The BRIT Awards 2024\The BRIT Awards 2024 HDTV H264 1080i DD2.0-ilya2129.ts
Format                                   : MPEG-TS
File size                                : 5.51 GiB
Duration                                 : 1 h 58 min
Overall bit rate mode                    : Variable
Overall bit rate                         : 6 663 kb/s
Frame rate                               : 25.000 FPS

Video
ID                                       : 302 (0x12E)
Menu ID                                  : 1 (0x1)
Format                                   : AVC
Format/Info                              : Advanced Video Codec
Format profile                           : Main@L4
Format settings                          : CABAC / 4 Ref Frames
Format settings, CABAC                   : Yes
Format settings, Reference frames        : 4 frames
Codec ID                                 : 27
Duration                                 : 1 h 58 min
Bit rate                                 : 6 140 kb/s
Width                                    : 1 920 pixels
Height                                   : 1 080 pixels
Display aspect ratio                     : 16:9
Frame rate                               : 25.000 FPS
Color space                              : YUV
Chroma subsampling                       : 4:2:0
Bit depth                                : 8 bits
Scan type                                : MBAFF
Bits/(Pixel*Frame)                       : 0.118
Stream size                              : 5.08 GiB (92%)
Color range                              : Limited

Audio
ID                                       : 303 (0x12F)
Menu ID                                  : 1 (0x1)
Format                                   : AC-3
Format/Info                              : Audio Coding 3
Commercial name                          : Dolby Digital
Codec ID                                 : 6
Duration                                 : 1 h 58 min
Bit rate mode                            : Constant
Bit rate                                 : 192 kb/s
Channel(s)                               : 2 channels
Channel layout                           : L R
Sampling rate                            : 48.0 kHz
Frame rate                               : 31.250 FPS (1536 SPF)
Compression mode                         : Lossy
Delay relative to video                  : -120 ms
Stream size                              : 163 MiB (3%)
Language                                 : English
Service kind                             : Complete Main
</pre>
</div><div style="text-align: center">
<div class="bbCodeBlock bbCodeVfcHH HiddenContent">
<div class="attribution type">Hidden Content:</div>
<blockquote>You must reply before you can see the hidden data contained here.</blockquote>
</div></div>
<div class="messageTextEndMarker">&nbsp;</div>
</blockquote>
</article>]]></description>
                <author><![CDATA[ilya2129]]></author>
                </item>

                </channel></rss>